<svg aria-hidden="true" style="position: absolute; width: 0; height: 0; overflow: hidden;" version="1.1" xmlns="http://www.w3.org/2000/svg" xmlns:xlink="http://www.w3.org/1999/xlink">
<defs>
<symbol id="icon-layers" viewBox="0 0 32 32">
<path d="M30.765 7.262l-11.543-6.515c-1.571-0.887-4.271-0.888-5.845 0l-11.543 6.515c-0.883 0.499-1.368 1.197-1.368 1.967s0.486 1.468 1.368 1.966l11.543 6.516c0.786 0.444 1.824 0.688 2.922 0.688s2.137-0.245 2.923-0.688l11.543-6.516c0.883-0.498 1.369-1.196 1.369-1.966s-0.487-1.468-1.369-1.967zM30.239 10.265l-11.543 6.516c-1.238 0.699-3.556 0.7-4.794 0l-11.543-6.516c-0.524-0.296-0.824-0.674-0.824-1.036s0.3-0.74 0.824-1.037l11.543-6.516c0.619-0.35 1.493-0.55 2.396-0.55 0.904 0 1.778 0.201 2.397 0.55l11.543 6.516c0.524 0.296 0.825 0.674 0.825 1.037 0.001 0.362-0.299 0.74-0.824 1.036zM30.765 14.099c-0.256-0.145-0.582-0.055-0.729 0.203-0.145 0.257-0.054 0.583 0.203 0.728 0.524 0.296 0.825 0.674 0.825 1.036s-0.301 0.74-0.825 1.036l-11.543 6.516c-1.298 0.733-3.494 0.734-4.794 0l-11.543-6.516c-0.524-0.296-0.824-0.674-0.824-1.036s0.3-0.74 0.824-1.036c0.257-0.145 0.348-0.471 0.203-0.728s-0.473-0.349-0.729-0.203c-0.883 0.498-1.368 1.197-1.368 1.967s0.485 1.469 1.368 1.967l11.543 6.516c0.819 0.462 1.871 0.694 2.922 0.694s2.104-0.231 2.923-0.694l11.543-6.516c0.883-0.498 1.369-1.197 1.369-1.967s-0.486-1.469-1.368-1.967zM30.765 20.804c-0.256-0.145-0.582-0.055-0.729 0.203-0.145 0.257-0.054 0.583 0.203 0.728 0.524 0.296 0.825 0.674 0.825 1.036s-0.301 0.74-0.825 1.037l-11.543 6.516c-1.298 0.733-3.494 0.734-4.794 0l-11.543-6.517c-0.524-0.296-0.824-0.674-0.824-1.037 0-0.362 0.3-0.74 0.824-1.036 0.257-0.145 0.348-0.471 0.203-0.728s-0.473-0.349-0.729-0.203c-0.881 0.499-1.367 1.197-1.367 1.968s0.485 1.469 1.368 1.967l11.543 6.516c0.819 0.462 1.871 0.694 2.922 0.694 1.052 0 2.104-0.231 2.923-0.694l11.543-6.516c0.883-0.499 1.369-1.197 1.369-1.967s-0.487-1.469-1.369-1.967z"></path>
</symbol>
<symbol id="icon-ruler" viewBox="0 0 32 32">
<path d="M6.058 6.835l0.686 0.686-2.808 2.808 2.188 2.188 2.821-2.821 0.641 0.641-2.821 2.822 2.16 2.159 6.416-6.416-7.812-7.766-6.393 6.393 2.114 2.115 2.808-2.809zM23.099 16.659l-6.416 6.417 2.159 2.159 2.822-2.821 0.641 0.641-2.821 2.821 2.188 2.188 2.807-2.808 0.686 0.686-2.807 2.808 2.113 2.114 6.394-6.394-7.766-7.811zM29.822 8.451c0.781-0.782 0.787-2.045 0.012-2.821l-3.512-3.511c-0.775-0.775-2.039-0.771-2.82 0.012l-2.17 2.17 6.32 6.32 2.17-2.17zM3.398 25.942l2.623 2.623 5.284-1.877-6.030-6.030-1.877 5.284zM20.65 4.943l-14.885 14.886 6.369 6.369 14.886-14.886-6.37-6.369zM8.657 19.816l11.981-11.981 0.698 0.698-11.982 11.982-0.697-0.699zM10.053 21.213l11.98-11.981 0.698 0.698-11.981 11.98-0.697-0.697zM11.449 22.608l11.981-11.981 0.697 0.698-11.98 11.981-0.698-0.698zM1.954 30.010l3.066-1.117-1.949-1.949-1.117 3.066z"></path>
</symbol>
<symbol id="icon-pencil1" viewBox="0 0 32 32">
<path d="M27 0c2.761 0 5 2.239 5 5 0 1.126-0.372 2.164-1 3l-2 2-7-7 2-2c0.836-0.628 1.874-1 3-1zM2 23l-2 9 9-2 18.5-18.5-7-7-18.5 18.5zM22.362 11.362l-14 14-1.724-1.724 14-14 1.724 1.724z"></path>
</symbol>
<symbol id="icon-mobile" viewBox="0 0 32 32">
<path d="M23 0h-14c-1.65 0-3 1.35-3 3v26c0 1.65 1.35 3 3 3h14c1.65 0 3-1.35 3-3v-26c0-1.65-1.35-3-3-3zM12 1.5h8v1h-8v-1zM16 30c-1.105 0-2-0.895-2-2s0.895-2 2-2 2 0.895 2 2-0.895 2-2 2zM24 24h-16v-20h16v20z"></path>
</symbol>
<symbol id="icon-sphere" viewBox="0 0 32 32">
<path d="M15 2c-8.284 0-15 6.716-15 15s6.716 15 15 15c8.284 0 15-6.716 15-15s-6.716-15-15-15zM23.487 22c0.268-1.264 0.437-2.606 0.492-4h3.983c-0.104 1.381-0.426 2.722-0.959 4h-3.516zM6.513 12c-0.268 1.264-0.437 2.606-0.492 4h-3.983c0.104-1.381 0.426-2.722 0.959-4h3.516zM21.439 12c0.3 1.28 0.481 2.62 0.54 4h-5.979v-4h5.439zM16 10v-5.854c0.456 0.133 0.908 0.355 1.351 0.668 0.831 0.586 1.625 1.488 2.298 2.609 0.465 0.775 0.867 1.638 1.203 2.578h-4.852zM10.351 7.422c0.673-1.121 1.467-2.023 2.298-2.609 0.443-0.313 0.895-0.535 1.351-0.668v5.854h-4.852c0.336-0.94 0.738-1.803 1.203-2.578zM14 12v4h-5.979c0.059-1.38 0.24-2.72 0.54-4h5.439zM2.997 22c-0.533-1.278-0.854-2.619-0.959-4h3.983c0.055 1.394 0.224 2.736 0.492 4h-3.516zM8.021 18h5.979v4h-5.439c-0.3-1.28-0.481-2.62-0.54-4zM14 24v5.854c-0.456-0.133-0.908-0.355-1.351-0.668-0.831-0.586-1.625-1.488-2.298-2.609-0.465-0.775-0.867-1.638-1.203-2.578h4.852zM19.649 26.578c-0.673 1.121-1.467 2.023-2.298 2.609-0.443 0.312-0.895 0.535-1.351 0.668v-5.854h4.852c-0.336 0.94-0.738 1.802-1.203 2.578zM16 22v-4h5.979c-0.059 1.38-0.24 2.72-0.54 4h-5.439zM23.98 16c-0.055-1.394-0.224-2.736-0.492-4h3.516c0.533 1.278 0.855 2.619 0.959 4h-3.983zM25.958 10h-2.997c-0.582-1.836-1.387-3.447-2.354-4.732 1.329 0.636 2.533 1.488 3.585 2.54 0.671 0.671 1.261 1.404 1.766 2.192zM5.808 7.808c1.052-1.052 2.256-1.904 3.585-2.54-0.967 1.285-1.771 2.896-2.354 4.732h-2.997c0.504-0.788 1.094-1.521 1.766-2.192zM4.042 24h2.997c0.583 1.836 1.387 3.447 2.354 4.732-1.329-0.636-2.533-1.488-3.585-2.54-0.671-0.671-1.261-1.404-1.766-2.192zM24.192 26.192c-1.052 1.052-2.256 1.904-3.585 2.54 0.967-1.285 1.771-2.896 2.354-4.732h2.997c-0.504 0.788-1.094 1.521-1.766 2.192z"></path>
</symbol>
<symbol id="icon-font" viewBox="0 0 32 32">
<path d="M24.987 0.506c-2.829 0-4.644-0.506-7.558-0.506-9.415 0-13.806 5.362-13.806 10.809 0 3.209 1.52 4.264 4.518 4.264-0.211-0.464-0.591-0.971-0.591-3.251 0-6.375 2.406-8.233 5.489-8.36 0 0-2.529 24.793-9.868 27.767v0.771h9.894l3.376-16h6.183l1.377-4h-6.716l1.623-7.693c1.858 0.38 3.673 0.76 5.235 0.76 1.942 0 3.715-0.591 4.686-5.066-1.182 0.38-2.449 0.506-3.842 0.506z"></path>
</symbol>
</defs>
</svg>
